<?xml version="1.0" standalone="no"?>
<!DOCTYPE svg PUBLIC "-//W3C//DTD SVG 20010904//EN"
 "http://www.w3.org/TR/2001/REC-SVG-20010904/DTD/svg10.dtd">
<svg version="1.0" xmlns="http://www.w3.org/2000/svg"
 width="512.000000pt" height="512.000000pt" viewBox="0 0 512.000000 512.000000"
 preserveAspectRatio="xMidYMid meet">
<metadata>
Created by potrace 1.14, written by Peter Selinger 2001-2017
</metadata>
<g transform="translate(0.000000,512.000000) scale(0.100000,-0.100000)"
fill="#000000" stroke="none">
<path d="M237 4569 c-74 -29 -130 -72 -171 -132 -70 -102 -66 26 -63 -1902 l2
-1740 28 -57 c36 -73 102 -139 175 -175 l57 -28 2280 -2 c2452 -3 2306 -6
2398 46 52 29 84 59 118 113 62 97 59 -12 56 1893 l-2 1740 -22 47 c-30 66
-78 123 -133 158 -100 64 77 60 -2410 59 -2204 -1 -2266 -2 -2313 -20z"/>
</g>
</svg>
